<?xml version="1.0" encoding="utf-8"?>
<svg viewBox="-29.327 -162.466 502.378 565.34" xmlns="http://www.w3.org/2000/svg">
  <rect rx="5" ry="5" style="fill: rgb(216, 216, 216); transform-origin: 305.672px 113.27px;" height="31.589" x="267.149" y="97.476" width="77.046" transform="matrix(0.999741, 0.02276, -0.02276, 0.999741, -128.20424, -51.937295)"/>
  <text style="fill: rgb(51, 51, 51); font-family: Timmana; font-size: 14.7px; white-space: pre; transform-origin: 195.276px 109.539px;" x="151.829" y="66.324">Rye code</text>
  <text style="white-space: pre; fill: rgb(51, 51, 51); font-family: Arial, sans-serif; font-size: 14.7px;" x="195.575" y="76.02"> </text>
  <text style="fill: rgb(51, 51, 51); font-family: Arial, sans-serif; font-size: 12px; white-space: pre;" transform="matrix(1, 0, 0, 1, -131.944473, 29.850677)"><tspan x="186.583" y="89.099">Direct values</tspan><tspan x="186.583" dy="1em">​</tspan></text>
  <text style="fill: rgb(51, 51, 51); font-family: Arial, sans-serif; font-size: 12px; white-space: pre;" x="238.738" y="119.521">Words</text>
  <text style="fill: rgb(51, 51, 51); font-family: Arial, sans-serif; font-size: 8px; white-space: pre;" x="238.214" y="131.576">Return or evaluate bound value</text>
  <text style="fill: rgb(51, 51, 51); font-family: Arial, sans-serif; font-size: 8px; white-space: pre; transform-box: fill-box; transform-origin: 50% 50%;" x="108.371" y="110.325" transform="matrix(1, 0, 0, 1, -53.375504, 22.037704)">Return themselves<tspan x="108.37100219726562" dy="1em">​</tspan>* integer<tspan x="108.37100219726562" dy="1em">​</tspan>* decimal<tspan x="108.37100219726562" dy="1em">​</tspan>* string<tspan x="108.37100219726562" dy="1em">​</tspan>* block<tspan x="108.37100219726562" dy="1em">​</tspan>* filepath<tspan x="108.37100219726562" dy="1em">​</tspan>* url<tspan x="108.37100219726562" dy="1em">​</tspan>* email</text>
  <line style="fill: rgb(216, 216, 216); stroke: rgb(0, 0, 0);" x1="135.826" y1="87.027" x2="104.904" y2="103.798"/>
  <line style="fill: rgb(216, 216, 216); stroke: rgb(0, 0, 0);" x1="214.967" y1="85.454" x2="242.22" y2="103.798"/>
  <text style="fill: rgb(51, 51, 51); font-family: Arial, sans-serif; font-size: 8px; white-space: pre; transform-origin: 342.939px 34.398px;" x="281.852" y="33.281" transform="matrix(1, 0, 0, 1, -54.948486, 26.230682)">Rye code is a block of Rye values.<tspan x="281.85198974609375" dy="1em">​</tspan>Block is also a type of Rye value.</text>
  <text style="fill: rgb(51, 51, 51); font-family: Arial, sans-serif; font-size: 12px; white-space: pre;" x="149.334" y="223.032">Direct values</text>
  <text style="fill: rgb(51, 51, 51); font-family: Arial, sans-serif; font-size: 8px; white-space: pre;" x="149.859" y="236.66">Return themselves</text>
  <text style="fill: rgb(51, 51, 51); font-family: Arial, sans-serif; font-size: 12px; white-space: pre;" x="306.567" y="221.984">Functions</text>
  <text style="fill: rgb(51, 51, 51); font-family: Arial, sans-serif; font-size: 8px; white-space: pre;" x="342.649" y="212.002" transform="matrix(1, 0, 0, 1, -34.507484, 22.561676)">Accept arguments if any, <tspan x="342.64898681640625" dy="1em">​</tspan>evaluate it's code and return result<tspan x="342.64898681640625" dy="1em">​</tspan>or failure.</text>
  <line style="fill: rgb(216, 216, 216); stroke: rgb(0, 0, 0);" x1="263.185" y1="140.486" x2="263.185" y2="158.829"/>
  <line style="fill: rgb(216, 216, 216); stroke: rgb(0, 0, 0);" x1="253.227" y1="174.029" x2="209.202" y2="205.475"/>
  <line style="fill: rgb(216, 216, 216); stroke: rgb(0, 0, 0);" x1="274.191" y1="172.456" x2="314.548" y2="205.999"/>
  <text style="fill: rgb(51, 51, 51); font-family: Arial, sans-serif; font-size: 8px; white-space: pre; transform-origin: 346.94px 34.398px;" x="238.453" y="168.194">Can be bound to</text>
  <text style="fill: rgb(51, 51, 51); font-family: Arial, sans-serif; font-size: 8px; white-space: pre; transform-origin: 346.94px 34.398px;" x="157.635" y="92.005">Consists of</text>
  <rect rx="5" ry="5" style="fill: rgb(216, 216, 216); transform-origin: 1304.07px 17.394px;" height="4.851" x="1139.721" y="14.968" width="328.693" transform="matrix(0.99995, -0.009966, 0.019485, 0.999855, -1071.824925, 322.79027)"/>
  <text style="fill: rgb(51, 51, 51); font-family: Arial, sans-serif; font-size: 8px; font-style: italic; white-space: pre;" y="18.912" x="14.74"><tspan x="49.069" y="337.17" style="font-size: 8px; word-spacing: 0px;">But what about special forms like </tspan><tspan style="font-weight: 700; font-size: 8px; word-spacing: 0px;">if</tspan><tspan style="font-size: 8px; word-spacing: 0px;">, </tspan><tspan style="font-weight: 700; font-size: 8px; word-spacing: 0px;">loop</tspan><tspan style="font-size: 8px; word-spacing: 0px;"> and </tspan><tspan style="font-weight: 700; font-size: 8px; word-spacing: 0px;">function</tspan><tspan style="font-size: 8px; word-spacing: 0px;"> definitions? - These are also just functions in Rye.</tspan></text>
  <path style="fill: rgb(216, 216, 216); transform-origin: 24.17px 154.21px;" d="M 11.761 163.918 L 33.058 159.909 L 23.241 138.415"/>
  <path style="fill: rgb(216, 216, 216);" d="M 20.342 147.54 L 13.561 142.521 L 6.781 135.062 L -0.465 125.87 L -2.635 136.474 L -11.875 140.974 L -2.584 147.839 L 7.601 153.535 L 16.985 156.561"/>
  <text style="fill: rgb(51, 51, 51); font-family: Arial, sans-serif; font-size: 12px; white-space: pre;" x="250.535" y="5.219">Special word types</text>
  <line style="fill: rgb(216, 216, 216); stroke: rgb(0, 0, 0);" x1="222.976" y1="41.363" x2="279.19" y2="15.255"/>
  <text style="fill: rgb(51, 51, 51); font-family: Arial, sans-serif; font-size: 12px; white-space: pre;" x="388.407" y="-41.308">Lit-words</text>
  <text style="fill: rgb(51, 51, 51); font-family: Arial, sans-serif; font-size: 8px; white-space: pre;" x="321.046" y="-64.089" transform="matrix(1, 0, 0, 1, 67.854385, 34.836071)">Literal words return<tspan x="321.0459899902344" dy="1em">​</tspan>the words themselves</text>
  <line style="fill: rgb(216, 216, 216); stroke: rgb(0, 0, 0);" x1="256.98" y1="-14.573" x2="228.332" y2="-51.457"/>
  <text style="fill: rgb(51, 51, 51); font-family: Arial, sans-serif; font-size: 12px; white-space: pre;" x="297.123" y="-133.928">Set-words</text>
  <text style="fill: rgb(51, 51, 51); font-family: Arial, sans-serif; font-size: 8px; white-space: pre;" x="321.046" y="-64.089" transform="matrix(1, 0, 0, 1, -22.904318, -57.784275)">Bind Rye value to a word,<tspan x="321.0459899902344" dy="1em">​</tspan>return the value</text>
  <line style="fill: rgb(216, 216, 216); stroke: rgb(0, 0, 0);" x1="300.466" y1="-16.257" x2="310.272" y2="-102.092"/>
  <text style="fill: rgb(51, 51, 51); font-family: Arial, sans-serif; font-size: 12px; white-space: pre;" x="151.36" y="-84.268">Get-words</text>
  <text style="fill: rgb(51, 51, 51); font-family: Arial, sans-serif; font-size: 8px; white-space: pre; transform-box: fill-box; transform-origin: 50% 50%;" x="321.046" y="-64.089" transform="matrix(1, 0, 0, 1, -169.176834, -9.14123)">Always return the bound<tspan x="321.0459899902344" dy="1em">​</tspan>value without evaluation<tspan x="321.0459899902344" dy="1em">​</tspan>even in case of a function</text>
  <line style="fill: rgb(216, 216, 216); stroke: rgb(0, 0, 0);" x1="346.828" y1="-12.59" x2="378.34" y2="-33.328"/>
  <rect rx="5" ry="5" style="paint-order: fill; fill-opacity: 0.51; fill: rgba(216, 203, 57, 0.81); transform-origin: 310.063px 220.489px;" height="61.49" x="270.986" y="189.745" width="78.154" transform="matrix(0.999741, 0.02276, -0.02276, 0.999741, -254.604582, 8.225909)"/>
  <text style="fill: rgb(51, 51, 51); font-family: &quot;Ubuntu Mono&quot;; font-size: 6px; white-space: pre;" x="-35.76" y="-9.266" transform="matrix(1, 0, 0, 1, 57.958485, 217.090118)">x&gt; 1<tspan x="-35.7599983215332" dy="1em">​</tspan>[Integer: 1}<tspan x="-35.7599983215332" dy="1em">​</tspan>x&gt; "Jane"<tspan x="-35.7599983215332" dy="1em">​</tspan>[String: Jane]<tspan x="-35.7599983215332" dy="1em">​</tspan>x&gt; { 7 }<tspan x="-35.7599983215332" dy="1em">​</tspan>[Block: [Integer: 7]]<tspan x="-35.7599983215332" dy="1em">​</tspan>x&gt; joe@doe.com<tspan x="-35.7599983215332" dy="1em">​</tspan>[Email: joe@doe.com]</text>
  <rect rx="5" ry="5" style="paint-order: fill; fill-opacity: 0.51; fill: rgba(216, 203, 57, 0.81); transform-origin: 233.16px 138.742px;" height="38.692" x="203.775" y="119.397" width="58.77" transform="matrix(0.999741, 0.02276, -0.02276, 0.999741, -43.750455, 131.887986)"/>
  <text style="fill: rgb(51, 51, 51); font-family: &quot;Ubuntu Mono&quot;; font-size: 6px; white-space: pre; transform-box: fill-box; transform-origin: 50% 50%;" x="-35.76" y="-9.266" transform="matrix(1, 0, 0, 1, 201.339203, 270.621368)">x&gt; a: 42<tspan x="-35.7599983215332" dy="1em">​</tspan>[Integer: 42}<tspan x="-35.7599983215332" dy="1em">​</tspan>x&gt; a<tspan x="-35.7599983215332" dy="1em">​</tspan>[Integer: 42]</text>
  <rect rx="5" ry="5" style="paint-order: fill; fill-opacity: 0.51; fill: rgba(216, 203, 57, 0.81); transform-origin: 330.519px 169.475px;" height="47.263" x="288.864" y="145.845" width="83.31" transform="matrix(0.999741, 0.02276, -0.02276, 0.999741, 21.719939, 112.715272)"/>
  <text style="fill: rgb(51, 51, 51); font-family: &quot;Ubuntu Mono&quot;; font-size: 6px; white-space: pre; transform-origin: -16.241px -2.091px;" x="-35.76" y="-9.266" transform="matrix(1, 0, 0, 1, 351.999329, 277.618042)">x&gt; inc 41<tspan x="-35.7599983215332" dy="1em">​</tspan>[Integer: 42}<tspan x="-35.7599983215332" dy="1em">​</tspan>x&gt; square: fn { x } { x * x }<tspan x="-35.7599983215332" dy="1em">​</tspan>[Function: 1]<tspan x="-35.7599983215332" dy="1em">​</tspan>x&gt; square 8<tspan x="-35.7599983215332" dy="1em">​</tspan>[Integer: 64]</text>
  <rect rx="5" ry="5" style="paint-order: fill; fill-opacity: 0.51; fill: rgba(216, 203, 57, 0.81); transform-origin: 219.264px 173.087px;" height="48.27" x="191.631" y="148.953" width="55.267" transform="matrix(0.999741, 0.02276, -0.02276, 0.999741, -36.388427, -193.406337)"/>
  <text style="fill: rgb(51, 51, 51); font-family: &quot;Ubuntu Mono&quot;; font-size: 6px; white-space: pre;" x="-35.76" y="-9.266" transform="matrix(1, 0, 0, 1, 196.674973, -25.502327)">x&gt; ?inc<tspan x="-35.7599983215332" dy="1em">​</tspan>[Builtin: 1}<tspan x="-35.7599983215332" dy="1em">​</tspan>x&gt; ?square<tspan x="-35.7599983215332" dy="1em">​</tspan>[Function: 1]<tspan x="-35.7599983215332" dy="1em">​</tspan>x&gt; ?pi<tspan x="-35.7599983215332" dy="1em">​</tspan>[Decimal: 3.14]</text>
  <text style="fill: rgb(181, 181, 181); font-family: Timmana; font-size: 14.7px; white-space: pre;" x="-22.922" y="122.063">start here</text>
  <rect rx="5" ry="5" style="paint-order: fill; fill-opacity: 0.51; fill: rgba(216, 203, 57, 0.81); transform-origin: 219.264px 173.087px;" height="48.27" x="191.631" y="148.953" width="55.267" transform="matrix(0.999741, 0.02276, -0.02276, 0.999741, 191.422562, -163.169093)"/>
  <text style="fill: rgb(51, 51, 51); font-family: &quot;Ubuntu Mono&quot;; font-size: 6px; white-space: pre;" x="-35.76" y="-9.266" transform="matrix(1, 0, 0, 1, 426.841248, 7.35532)">x&gt; 'off<tspan x="-35.7599983215332" dy="1em">​</tspan>[Word: off}<tspan x="-35.7599983215332" dy="1em">​</tspan>x&gt; 'on<tspan x="-35.7599983215332" dy="1em">​</tspan>[Word: on]</text>
  <rect rx="5" ry="5" style="paint-order: fill; fill-opacity: 0.51; fill: rgba(216, 203, 57, 0.81); transform-origin: 219.264px 173.087px;" height="48.27" x="191.631" y="148.953" width="55.267" transform="matrix(0.999741, 0.02276, -0.02276, 0.999741, 126.331101, -256.322932)"/>
  <text style="fill: rgb(51, 51, 51); font-family: &quot;Ubuntu Mono&quot;; font-size: 6px; white-space: pre;" x="-35.76" y="-9.266" transform="matrix(1, 0, 0, 1, 361.12616, -86.349716)">x&gt; name: "Jim"<tspan x="-35.7599983215332" dy="1em">​</tspan>[String: Jim]<tspan x="-35.7599983215332" dy="1em">​</tspan>x&gt; mode: 'off<tspan x="-35.7599983215332" dy="1em">​</tspan>[Word: off]<tspan x="-35.7599983215332" dy="1em">​</tspan>x&gt; 3.14 :pi</text>
  <text style="fill: rgb(137, 135, 135); font-family: Arial, sans-serif; font-size: 8px; font-style: italic; white-space: pre; transform-box: fill-box; transform-origin: 50% 50%;" transform="matrix(1, 0, 0, 1, 0.000047, 0)"><tspan x="-24.039" y="371.975">* This is a scheme of Rye1 (RyeOne) dialect, a subset to Rye2 or regular Rye.</tspan><tspan x="-24.038999557495117" dy="1em">​</tspan><tspan>   Rye2 adds few word types/behaviours on top of this, to enable more flexibility. <tspan x="-24.038999557495117" dy="1em">​</tspan>   Rye1 is similar to Rebol language. </tspan></text>
</svg>